<svg xmlns="http://www.w3.org/2000/svg" xlink="http://www.w3.org/1999/xlink" width="0" height="0" style="display:none;"><symbol viewBox="0 0 24 24" id="arrow-up-s-fill"><path fill="none" d="M0 0h24v24H0z"/><path d="M12 8l6 6H6z"/></symbol><symbol viewBox="0 0 24 24" id="arrow-down-s-fill"><path fill="none" d="M0 0h24v24H0z"/><path d="M12 16l-6-6h12z"/></symbol><symbol viewBox="0 0 24 24" id="arrow-right-s-fill"><path fill="none" d="M0 0h24v24H0z"/><path d="M16 12l-6 6V6z"/></symbol><symbol viewBox="0 0 24 24" id="arrow-left-s-fill"><path fill="none" d="M0 0h24v24H0z"/><path d="M8 12l6-6v12z"/></symbol><symbol viewBox="0 0 24 24" id="team-line"><path fill="none" d="M0 0h24v24H0z"/><path d="M12 11a5 5 0 0 1 5 5v6h-2v-6a3 3 0 0 0-2.824-2.995L12 13a3 3 0 0 0-2.995 2.824L9 16v6H7v-6a5 5 0 0 1 5-5zm-6.5 3c.279 0 .55.033.81.094a5.947 5.947 0 0 0-.301 1.575L6 16v.086a1.492 1.492 0 0 0-.356-.08L5.5 16a1.5 1.5 0 0 0-1.493 1.356L4 17.5V22H2v-4.5A3.5 3.5 0 0 1 5.5 14zm13 0a3.5 3.5 0 0 1 3.5 3.5V22h-2v-4.5a1.5 1.5 0 0 0-1.356-1.493L18.5 16c-.175 0-.343.03-.5.085V16c0-.666-.108-1.306-.309-1.904.259-.063.53-.096.809-.096zm-13-6a2.5 2.5 0 1 1 0 5 2.5 2.5 0 0 1 0-5zm13 0a2.5 2.5 0 1 1 0 5 2.5 2.5 0 0 1 0-5zm-13 2a.5.5 0 1 0 0 1 .5.5 0 0 0 0-1zm13 0a.5.5 0 1 0 0 1 .5.5 0 0 0 0-1zM12 2a4 4 0 1 1 0 8 4 4 0 0 1 0-8zm0 2a2 2 0 1 0 0 4 2 2 0 0 0 0-4z"/></symbol><symbol viewBox="0 0 24 24" id="share-box-line"><path fill="none" d="M0 0h24v24H0z"/><path d="M10 3v2H5v14h14v-5h2v6a1 1 0 0 1-1 1H4a1 1 0 0 1-1-1V4a1 1 0 0 1 1-1h6zm7.586 2H13V3h8v8h-2V6.414l-7 7L10.586 12l7-7z"/></symbol><symbol viewBox="0 0 24 24" id="search-eye-line"><path fill="none" d="M0 0h24v24H0z"/><path d="M18.031 16.617l4.283 4.282-1.415 1.415-4.282-4.283A8.96 8.96 0 0 1 11 20c-4.968 0-9-4.032-9-9s4.032-9 9-9 9 4.032 9 9a8.96 8.96 0 0 1-1.969 5.617zm-2.006-.742A6.977 6.977 0 0 0 18 11c0-3.868-3.133-7-7-7-3.868 0-7 3.132-7 7 0 3.867 3.132 7 7 7a6.977 6.977 0 0 0 4.875-1.975l.15-.15zm-3.847-8.699a2 2 0 1 0 2.646 2.646 4 4 0 1 1-2.646-2.646z"/></symbol></svg>